<?xml version="1.0" encoding="UTF-8"?>
<svg id="a" xmlns="http://www.w3.org/2000/svg" version="1.1" viewBox="0 0 448 512">
  <!-- Generator: Adobe Illustrator 29.2.1, SVG Export Plug-In . SVG Version: 2.1.0 Build 116)  -->
  <defs>
    <style>
      .st0 {
        fill: #222;
      }
    </style>
  </defs>
  <path class="st0" d="M96,32v32h-48C21.5,64,0,85.5,0,112v48h448v-48c0-26.5-21.5-48-48-48h-48v-32c0-17.7-14.3-32-32-32s-32,14.3-32,32v32h-128v-32c0-17.7-14.3-32-32-32s-32,14.3-32,32ZM448,192H0v272c0,26.5,21.5,48,48,48h352c26.5,0,48-21.5,48-48V192Z"/>
</svg>