<?xml version="1.0" encoding="utf-8"?>
<!-- Generator: Adobe Illustrator 24.2.3, SVG Export Plug-In . SVG Version: 6.00 Build 0)  -->
<svg version="1.1" id="圖層_1" xmlns="http://www.w3.org/2000/svg" xmlns:xlink="http://www.w3.org/1999/xlink" x="0px" y="0px"
	 viewBox="0 0 24 24" style="enable-background:new 0 0 24 24;" xml:space="preserve">
<style type="text/css">
	.st0{fill:none;}
	.st1{fill:#999999;}
</style>
<path id="Path_54" class="st0" d="M0,0h24v24H0V0z"/>
<path id="Path_55" class="st1" d="M6.5,14.7c1.7,0.1,3.2-1.3,3.3-3.1c0.1-1.7-1.3-3.2-3.1-3.3H6.5c-1.7,0.1-3.2,1.4-3.3,3.2
	c0,1.7,1.3,3.2,3.1,3.2l0,0H6.5z M19.6,8.4H13c-1.2,0-2.1,0.9-2.2,2.1v5.3H2.2V7.4c0-0.6-0.5-1.1-1.1-1.1l0,0C0.5,6.3,0,6.8,0,7.4
	v13.7c0,0.6,0.5,1.1,1.1,1.1s1.1-0.5,1.1-1.1V19h19.6v2.1c0,0.6,0.5,1.1,1.1,1.1s1.1-0.5,1.1-1.1v-8.4C24,10.3,22,8.4,19.6,8.4
	L19.6,8.4z"/>
</svg>
