<svg id="圖層_1" data-name="圖層 1" xmlns="http://www.w3.org/2000/svg" viewBox="0 0 384 336"><defs><style>.cls-1{fill:#2067bf;}</style></defs><title>icon_sorting_asc</title><path class="cls-1" d="M244,136h48a12,12,0,0,0,12-12V100a12,12,0,0,0-12-12H244a12,12,0,0,0-12,12v24A12,12,0,0,0,244,136Zm0,96h96a12,12,0,0,0,12-12V196a12,12,0,0,0-12-12H244a12,12,0,0,0-12,12v24A12,12,0,0,0,244,232ZM436,376H244a12,12,0,0,0-12,12v24a12,12,0,0,0,12,12H436a12,12,0,0,0,12-12V388A12,12,0,0,0,436,376ZM244,328H388a12,12,0,0,0,12-12V292a12,12,0,0,0-12-12H244a12,12,0,0,0-12,12v24A12,12,0,0,0,244,328Zm-48,0H160V100a12,12,0,0,0-12-12H124a12,12,0,0,0-12,12V328H76a12,12,0,0,0-8.47,20.48l60,72a12,12,0,0,0,17,0l60-72A12,12,0,0,0,196,328Z" transform="translate(-64 -88)"/></svg>