<?xml version="1.0" encoding="utf-8"?>
<!-- Generator: Adobe Illustrator 24.3.0, SVG Export Plug-In . SVG Version: 6.00 Build 0)  -->
<svg version="1.1" id="圖層_1" xmlns="http://www.w3.org/2000/svg" xmlns:xlink="http://www.w3.org/1999/xlink" x="0px" y="0px"
	 viewBox="0 0 73.5 44.7" style="enable-background:new 0 0 73.5 44.7;" xml:space="preserve">
<style type="text/css">
	.st0{fill:none;stroke:#000000;stroke-width:0.5;stroke-miterlimit:10;}
	.st1{fill:#FFCC00;}
	.st2{font-family:'MicrosoftJhengHeiBold';}
	.st3{font-size:10px;}
	.st4{letter-spacing:1;}
</style>
<g>
	<path class="st0" d="M45.8,14.3V9.7c0.1-0.6-0.4-1.2-1.1-1.3c0,0,0,0-0.1,0h-0.2c-0.7,0.1-1.2,0.6-1.2,1.3v4c0,0.3,0,0.7-0.3,0.7
		l0,0c-0.3,0-0.9-0.4-0.9-0.7V7.3c0.1-0.6-0.4-1.2-1-1.3h-0.2c-0.7,0-1.3,0.6-1.3,1.3v6.5c0,0.3-0.3,0.6-0.6,0.6c0,0,0,0,0,0
		c-0.3,0-0.6-0.3-0.6-0.6V5.4c0.1-0.6-0.4-1.2-1-1.3h-0.2c-0.7,0-1.3,0.5-1.3,1.3v8.3c0,0.3-0.3,0.6-0.6,0.6c-0.3,0-0.6-0.3-0.6-0.6
		c0,0,0,0,0,0V7.3c0.1-0.6-0.3-1.1-0.9-1.3h-0.2C32.6,6,32,6.6,32,7.3v9.4c0,0.4-0.1,0.6-0.4,0.6c-0.1,0-0.2-0.1-0.3-0.2l-1.5-1.4
		c-0.2-0.2-0.5-0.4-0.9-0.4c-0.7,0-1.2,0.5-1.2,1.2c0,0.3,0.1,0.7,0.4,0.9l5.3,7l0,0l0.1,1.8c0,0.3,0.3,0.5,0.5,0.5h9.3
		c0.3,0,0.5-0.2,0.5-0.5l0.2-1.9c0-0.1-0.1-0.1,0-0.2C45.5,21.9,45.8,18.3,45.8,14.3z"/>
	<polygon class="st1" points="62.1,17.8 56.2,13.3 56.2,15.9 50.5,15.9 50.5,20 56.2,20 56.2,22.3 	"/>
	<polygon class="st1" points="11.4,17.8 17.3,13.3 17.3,15.9 23.1,15.9 23.1,20 17.3,20 17.3,22.3 	"/>
</g>
<text transform="matrix(1 0 0 1 4.55 38.06)" class="st2 st3 st4">拖拉即可排序</text>
</svg>
