<svg id="圖層_1" data-name="圖層 1" xmlns="http://www.w3.org/2000/svg" viewBox="0 0 60 60"><defs><style>.cls-1{fill:#ccc;}.cls-2{fill:#fff;}</style></defs><title>icons</title><rect class="cls-1" x="-0.08" width="60.08" height="60.08" rx="5"/><path class="cls-2" d="M13.67,16.65,33.93,50.56l1.92-1.14a2.13,2.13,0,1,1,3.65-2.19l2.22-1.33a2.13,2.13,0,0,1,3.65-2.18l2.23-1.33a2.13,2.13,0,0,1,3.65-2.18l1.91-1.14L32.9,5.16Z"/><path class="cls-1" d="M8.94,27.33,36.87,55.26l1.58-1.58a2.13,2.13,0,1,1,3-3l1.83-1.83a2.12,2.12,0,0,1,3-3L48.13,44a2.12,2.12,0,0,1,3-3l1.58-1.58L24.79,11.48Z"/><path class="cls-2" d="M36.87,56.51,7.69,27.33l17.1-17.1L54,39.42l-2.83,2.83-.63-.63a1.24,1.24,0,0,0-1.75,1.76l.62.62L46.3,47.09l-.63-.63a1.24,1.24,0,1,0-1.75,1.76l.62.62-3.08,3.08-.63-.62a1.24,1.24,0,0,0-1.75,1.76l.62.62ZM10.19,27.33,36.87,54l.43-.42a3,3,0,0,1,4.06-4.07l.78-.77a3,3,0,0,1,4.06-4.07l.78-.77a3,3,0,0,1,.53-3.54A3.06,3.06,0,0,1,51,39.84l.43-.42L24.79,12.73Z"/><rect class="cls-2" x="31.05" y="47.5" width="1.33" height="1.77" transform="translate(-24.92 36.59) rotate(-45)"/><path class="cls-2" d="M34,47.34l-1.25-1.25,1.8-1.8,1.25,1.25Zm3-3-1.25-1.25,1.8-1.8,1.25,1.25Zm3-3-1.25-1.25,1.8-1.79,1.25,1.25Zm3-3L41.75,37.1l1.8-1.8,1.25,1.25Z"/><rect class="cls-2" x="45.18" y="33.37" width="1.33" height="1.77" transform="translate(-10.8 42.45) rotate(-45)"/><rect class="cls-1" x="21.31" y="20.57" width="13.63" height="20.16" transform="translate(-13.44 28.87) rotate(-45)"/><path class="cls-2" d="M30.44,43.54,15.25,28.35,25.82,17.77,41,33ZM17.12,28.35,30.44,41.66l8.7-8.7L25.82,19.64Z"/></svg>