<?xml version="1.0" encoding="utf-8"?>
<!-- Generator: Adobe Illustrator 24.2.3, SVG Export Plug-In . SVG Version: 6.00 Build 0)  -->
<svg version="1.1" id="圖層_1" xmlns="http://www.w3.org/2000/svg" xmlns:xlink="http://www.w3.org/1999/xlink" x="0px" y="0px"
	 viewBox="0 0 24 24" style="enable-background:new 0 0 24 24;" xml:space="preserve">
<style type="text/css">
	.st0{fill:#999999;}
	.st1{fill:none;}
	.st2{fill:#FFFFFF;}
	.st3{fill:#999999;stroke:#FFFFFF;stroke-miterlimit:10;}
</style>
<path class="st0" d="M22.1,20c0,3.2-6.3,4-10.1,4S1.9,23.2,1.9,20c0-1.8,2.3-3,5.3-3.6c0.4,0.7,0.9,1.4,1.3,1.9
	C5.6,18.7,4,19.5,3.9,20c0.2,0.5,2.8,1.9,8.1,1.9s7.9-1.4,8.1-1.9c-0.1-0.3-1.7-1.3-4.7-1.6c0.4-0.6,0.9-1.3,1.4-1.9
	C19.8,17,22.1,18.2,22.1,20z"/>
<path id="Path_53_1_" class="st0" d="M12,43.8c-4.8,0-8.7,3.8-8.7,8.6l0,0l0,0c0,5.1,5.5,12.2,7.7,15c0.4,0.5,1.2,0.6,1.7,0.1
	c0.1,0,0.1-0.1,0.2-0.1c2.2-2.7,7.7-9.8,7.7-15C20.6,47.6,16.8,43.8,12,43.8z M12,55.5c-1.7,0-3.1-1.4-3.1-3.1
	c0-1.7,1.4-3.1,3.1-3.1s3.1,1.4,3.1,3.1S13.7,55.5,12,55.5L12,55.5z"/>
<path class="st0" d="M-59.6,13.7c-5.4,0-9.8-4.4-9.8-9.8s4.4-9.8,9.8-9.8s9.8,4.4,9.8,9.8C-49.8,9.3-54.2,13.7-59.6,13.7z
	 M-59.6-4.8c-4.8,0-8.8,3.9-8.8,8.8s3.9,8.8,8.8,8.8c4.8,0,8.8-3.9,8.8-8.8S-54.8-4.8-59.6-4.8z"/>
<path id="Path_52_1_" class="st1" d="M-69.5-6.6h21.3v21.3h-21.3V-6.6z"/>
<path class="st0" d="M-59.1,13.5l-0.6-0.1c-5.2-0.6-5.2-9-5.2-9.4c0-8.1,4.1-9.7,4.3-9.8l0.4,0.9c-0.1,0.1-3.7,1.5-3.7,8.9
	c0,0.1,0,7.2,3.8,8.3V-5.5h1C-59.1-5.5-59.1,13.5-59.1,13.5z"/>
<path class="st0" d="M-64.9,4c0-8,4.1-9.7,4.3-9.8l0.4,0.9c0,0-3.7,1.6-3.7,8.9L-64.9,4z"/>
<path class="st0" d="M-56.2-2c-0.2,0-0.4-0.1-0.5-0.4c-0.6-1.8-2.1-2.5-2.1-2.5c-0.2,0-0.4-0.3-0.2-0.6c0.1-0.3,0.4-0.4,0.7-0.3
	c0.1,0,2,0.9,2.7,3.1c0.1,0.3-0.1,0.5-0.3,0.6C-56.1-2-56.1-2-56.2-2z"/>
<path class="st0" d="M-59.4-0.3c-5.2,0-7.3-1.5-7.4-1.6C-67-2-67.1-2.4-66.9-2.6c0.2-0.2,0.5-0.3,0.7-0.1c0,0,2.4,1.7,8.5,1.3
	c0.3,0,0.5,0.2,0.5,0.5s-0.2,0.5-0.5,0.5C-58.2-0.3-58.9-0.3-59.4-0.3z"/>
<path class="st0" d="M-58.4,4.4h-10.4c-0.3,0-0.5-0.2-0.5-0.5s0.2-0.5,0.5-0.5h10.4c0.3,0,0.5,0.2,0.5,0.5S-58.2,4.4-58.4,4.4z"/>
<path class="st0" d="M-66.5,10.6c-0.2,0-0.4-0.1-0.4-0.3c-0.1-0.2,0-0.5,0.2-0.7c0.2-0.1,4.8-2.4,10-1.3c0.3,0.1,0.4,0.3,0.4,0.6
	c-0.1,0.3-0.3,0.4-0.6,0.4c-4.9-1.1-9.3,1.2-9.3,1.2C-66.3,10.6-66.4,10.6-66.5,10.6z"/>
<path class="st0" d="M-58.6,13.6c-0.2,0-0.4-0.2-0.5-0.4c-0.1-0.3,0.1-0.5,0.4-0.6c0,0,1.3-0.4,2.3-2.7c0.1-0.3,0.4-0.4,0.7-0.3
	c0.3,0.1,0.4,0.4,0.3,0.7c-1.2,2.9-2.9,3.3-3,3.3C-58.5,13.6-58.6,13.6-58.6,13.6z"/>
<circle class="st2" cx="-51.9" cy="3.7" r="3.5"/>
<path id="Path_53_2_" class="st3" d="M-51.8-2c-3.1,0-5.6,2.5-5.6,5.5l0,0l0,0c0,3.3,3.5,7.9,5,9.7c0.3,0.3,0.8,0.4,1.1,0.1l0.1-0.1
	c1.4-1.7,5-6.3,5-9.7C-46.3,0.5-48.7-2-51.8-2z M-51.8,4.9c-0.7,0-1.3-0.6-1.3-1.3s0.6-1.3,1.3-1.3s1.3,0.6,1.3,1.3
	S-51.1,4.9-51.8,4.9L-51.8,4.9z"/>
<g id="Path_53">
	<path class="st0" d="M11.9,0.3c-1.9,0-3.6,0.8-4.9,2c-1.2,1.2-2,3-2,4.9c0,2.8,2,6.2,3.8,8.9c0.5,0.7,1,1.3,1.4,1.9
		c0.4,0.5,0.7,0.9,1,1.2c0.2,0.2,0.5,0.3,0.8,0.3c0.2,0,0.4,0,0.6-0.2l0.1-0.1c0.3-0.3,0.6-0.8,1-1.3s0.9-1.2,1.4-1.9
		c1.8-2.6,3.8-6.1,3.8-8.9C18.9,3.5,15.8,0.3,11.9,0.3z M10.1,5.3c0.5-0.4,1.1-0.7,1.8-0.7c1.4,0,2.5,1.1,2.5,2.5s-1.1,2.5-2.5,2.5
		c-1.3,0-2.4-1.1-2.5-2.5C9.4,6.5,9.7,5.8,10.1,5.3z"/>
</g>
</svg>
