<svg id="圖層_1" data-name="圖層 1" xmlns="http://www.w3.org/2000/svg" viewBox="0 0 60 60"><defs><style>.cls-1{fill:#2362ae;}.cls-2{fill:#fff;}</style></defs><title>icons</title><rect class="cls-1" width="60" height="60" rx="5"/><circle class="cls-2" cx="20.74" cy="16.28" r="3.98"/><polygon class="cls-2" points="17.76 9.56 9.4 5.72 8.64 10.76 17.76 9.56"/><rect class="cls-2" x="-4.25" y="16.67" width="23.91" height="0.68" transform="translate(-10.26 22.11) rotate(-81.51)"/><path class="cls-2" d="M38.13,30.41,27.94,23.17A10.53,10.53,0,0,0,22,21.07h0a3.65,3.65,0,0,0-2.57.84l-6.19,5.17L6.11,25.59l-1.2,1.19L14.1,30.1l5.2-2.68L23.19,36l-7.41,7.93,4,12.34h2.4L19.69,45.64s4.64-3.8,5.76-4.66l7,15.28h2.15L26.53,26l10.71,5.43Z"/><rect class="cls-2" x="42.54" y="27.84" width="1.07" height="28.82" transform="translate(-15 25.87) rotate(-28.7)"/><path class="cls-2" d="M45.06,37.62h5.75a.78.78,0,0,1,.78.78V52.49a0,0,0,0,1,0,0H45.06a0,0,0,0,1,0,0V37.62A0,0,0,0,1,45.06,37.62Z" transform="translate(-15.7 28.74) rotate(-28.7)"/><circle class="cls-2" cx="49.99" cy="54.89" r="1.38"/><circle class="cls-2" cx="55.71" cy="51.76" r="1.38"/></svg>