<svg xmlns="http://www.w3.org/2000/svg" viewBox="0 0 60 60"><defs><style>.cls-1{fill:#ccc;}.cls-2{fill:#fff;}</style></defs><title>icon</title><g id="index_block_top2"><path class="cls-1" d="M50.3.87a3.47,3.47,0,0,1,3.46,3.46V55.67a3.47,3.47,0,0,1-3.46,3.46H9.7a3.47,3.47,0,0,1-3.46-3.46V4.33A3.47,3.47,0,0,1,9.7.87H50.3m0-.87H9.7A4.33,4.33,0,0,0,5.37,4.33V55.67A4.33,4.33,0,0,0,9.7,60H50.3a4.33,4.33,0,0,0,4.33-4.33V4.33A4.33,4.33,0,0,0,50.3,0Z"/><path class="cls-1" d="M5.37,37.72V3.86A3.86,3.86,0,0,1,9.23,0H50.77a3.86,3.86,0,0,1,3.86,3.86V37.72Z"/><rect class="cls-1" x="9.39" y="41.21" width="11.38" height="3"/><rect class="cls-1" x="9.39" y="47.09" width="41.02" height="1.5"/><rect class="cls-1" x="9.39" y="50.63" width="32.08" height="1.5"/><path class="cls-2" d="M29.68,31.41H20.59v-1h4v-3H22.08a11.28,11.28,0,0,1-2.26,2.87l-.73-.88a11.37,11.37,0,0,0,3.15-5.27H19.37V23h3.16a12.63,12.63,0,0,0,.35-1.9l1.13.15q-.09.66-.33,1.75h5.88v1.05H23.41a21.16,21.16,0,0,1-.81,2.24H29v1H25.72v3h3.95Z"/><path class="cls-2" d="M40.75,31.1H35.1V30l2.63-2.59A10,10,0,0,0,39,25.87a2.41,2.41,0,0,0,.42-1.37q0-1.51-1.59-1.51a3.39,3.39,0,0,0-2.3,1V22.68a4.2,4.2,0,0,1,2.54-.81,2.87,2.87,0,0,1,2,.67,2.32,2.32,0,0,1,.74,1.82A3.32,3.32,0,0,1,40.37,26,9.38,9.38,0,0,1,38.73,28l-2,1.92v0h4Z"/><path class="cls-2" d="M28.64,17.21H18.18V16.13h4.31V7h1.12v3.6h4.52v1.05H23.61v4.45h5Z"/><path class="cls-2" d="M34.55,12.49q-.48.25-.9.43v3.35a1.49,1.49,0,0,1-.24.81q-.24.38-1.1.38l-.62,0-.31-1a7.11,7.11,0,0,0,1.1,0q.12,0,.12-.26V13.4l-1,.35-.28-1q.93-.34,1.28-.49V10H31.42v-1H32.6V7h1V8.93h.79v1h-.79v1.79a6.5,6.5,0,0,0,.77-.36Zm3.22.26a6.06,6.06,0,0,1-2.19,4.86l-.79-.79a4.63,4.63,0,0,0,1.79-2.57q-.91.4-1.9.72L34.24,14a16.47,16.47,0,0,0,2.48-.9v-1H34.85v-1h1.87V9.7H34.8v-1h1.92V7h1Zm4.1,2.31H39.69v2.46h-1V7h1V8.67h2.09v1H39.69v1.61h1.86v1H39.69V14h2.17Z"/></g></svg>