<?xml version="1.0" encoding="utf-8"?>
<!-- Generator: Adobe Illustrator 24.2.3, SVG Export Plug-In . SVG Version: 6.00 Build 0)  -->
<svg version="1.1" id="圖層_1" xmlns="http://www.w3.org/2000/svg" xmlns:xlink="http://www.w3.org/1999/xlink" x="0px" y="0px"
	 viewBox="0 0 24 24" style="enable-background:new 0 0 24 24;" xml:space="preserve">
<style type="text/css">
	.st0{fill:#999999;}
</style>
<g>
	<path class="st0" d="M20.2,9.4H3.1c-0.7,0-1.2-0.6-1.2-1.2V8.1C1.8,7.4,2.4,6.7,3.1,6.7h17.1c0.7,0,1.2,0.6,1.2,1.2v0.1
		C21.6,8.9,21,9.4,20.2,9.4z"/>
	<path class="st0" d="M19.2,18.3H2.1c-0.7,0-1.2-0.6-1.2-1.2V17c0-0.7,0.6-1.2,1.2-1.2h17.1c0.7,0,1.2,0.6,1.2,1.2v0.1
		C20.6,17.7,19.9,18.3,19.2,18.3z"/>
	<path class="st0" d="M4.9,22.5L7.1,3c0.1-0.7,0.7-1.2,1.4-1.1h0.1C9.4,2,9.9,2.6,9.8,3.3L7.5,22.9c-0.1,0.7-0.7,1.2-1.4,1.1H6
		C5.3,23.9,4.9,23.3,4.9,22.5z"/>
	<path class="st0" d="M12.9,22.5L15.2,3c0.1-0.7,0.7-1.2,1.4-1.1h0.1C17.5,2,18,2.6,17.9,3.3l-2.3,19.5c-0.1,0.7-0.7,1.2-1.4,1.1H14
		C13.3,23.9,12.8,23.3,12.9,22.5z"/>
</g>
</svg>
