<?xml version="1.0" encoding="UTF-8"?>
<svg id="_圖層_1" data-name="圖層_1" xmlns="http://www.w3.org/2000/svg" version="1.1" viewBox="0 0 18 18">
  <!-- Generator: Adobe Illustrator 29.2.1, SVG Export Plug-In . SVG Version: 2.1.0 Build 116)  -->
  <defs>
    <style>
      .st0 {
        fill: #fff;
      }
    </style>
  </defs>
  <path class="st0" d="M9,0c-.6,0-1,.4-1,1v8c0,.6.4,1,1,1s1-.4,1-1V1c0-.6-.4-1-1-1ZM14.1,2.9c-.4.4-.4,1,0,1.4,1.2,1.2,1.8,2.9,1.9,4.6,0,3.9-3,7.1-6.9,7.2-3.9,0-7-3-7.1-6.9,0-1.8.6-3.5,1.9-4.8.4-.3.5-1,.2-1.4-.3-.4-1-.5-1.4-.2,0,0-.1.1-.2.2C.9,4.5,0,6.6,0,8.7c0,4.9,3.8,9.1,8.7,9.3,5,.2,9.1-3.7,9.3-8.7,0,0,0-.2,0-.3,0-2.3-.9-4.5-2.4-6.1-.4-.4-1-.4-1.4,0,0,0,0,0,0,0Z"/>
</svg>