<?xml version="1.0" encoding="utf-8"?>
<!-- Generator: Adobe Illustrator 23.0.6, SVG Export Plug-In . SVG Version: 6.00 Build 0)  -->
<svg version="1.1" id="圖層_1" xmlns="http://www.w3.org/2000/svg" xmlns:xlink="http://www.w3.org/1999/xlink" x="0px" y="0px"
	 viewBox="0 0 60 60" style="enable-background:new 0 0 60 60;" xml:space="preserve">
<style type="text/css">
	.st0{fill:#2067BF;}
	.st1{fill:#FFFFFF;}
</style>
<title>icon</title>
<g id="index_block_bottom1">
	<path class="st0" d="M50.3,0.9c1.9,0,3.5,1.6,3.5,3.5v51.3c0,1.9-1.6,3.5-3.5,3.5H9.7c-1.9,0-3.5-1.6-3.5-3.5V4.3
		c0-1.9,1.6-3.5,3.5-3.5H50.3 M50.3,0H9.7C7.3,0,5.4,1.9,5.4,4.3v51.3c0,2.4,1.9,4.3,4.3,4.3c0,0,0,0,0,0h40.6
		c2.4,0,4.3-1.9,4.3-4.3V4.3C54.6,1.9,52.7,0,50.3,0z"/>
	<path class="st0" d="M5.4,37.7V3.9C5.4,1.7,7.1,0,9.2,0h41.5c2.1,0,3.9,1.7,3.9,3.9c0,0,0,0,0,0v33.9H5.4z"/>
	<rect x="9.4" y="41.2" class="st0" width="11.4" height="3"/>
	<rect x="9.4" y="47.1" class="st0" width="41" height="1.5"/>
	<rect x="9.4" y="50.6" class="st0" width="32.1" height="1.5"/>
	<path class="st1" d="M29.7,31.4h-9.1v-1h4v-3h-2.5c-0.6,1.1-1.4,2-2.3,2.9l-0.7-0.9c1.5-1.4,2.6-3.3,3.1-5.3h-2.9V23h3.2
		c0.2-0.6,0.3-1.3,0.4-1.9l1.1,0.1c-0.1,0.4-0.2,1-0.3,1.8h5.9v1h-6.2c-0.2,0.8-0.5,1.5-0.8,2.2H29v1h-3.3v3h4L29.7,31.4z"/>
	<path class="st1" d="M40.9,31.1h-5.3V30h2v-6.6l-2,0.5v-1.2l3.4-0.9V30h2L40.9,31.1z"/>
	<path class="st1" d="M28.6,8.4h-5.2v1.9c1.5,0.7,3,1.6,4.3,2.7l-0.7,1c-1.1-0.9-2.4-1.8-3.7-2.4v6h-1.1V8.4h-4.1V7.3h10.4V8.4z"/>
	<path class="st1" d="M34.5,12.5c-0.3,0.2-0.6,0.3-0.9,0.4v3.4c0,0.3-0.1,0.6-0.2,0.8c-0.2,0.3-0.5,0.4-1.1,0.4h-0.6l-0.3-1
		c0.4,0,0.7,0,1.1,0c0.1,0,0.1-0.1,0.1-0.3v-2.8l-1,0.4l-0.3-1c0.6-0.2,1-0.4,1.3-0.5V10h-1.2V9h1.2V7h1v1.9h0.8v1h-0.8v1.8
		c0.3-0.1,0.5-0.2,0.8-0.4L34.5,12.5z M37.8,12.8c0.1,1.9-0.7,3.7-2.2,4.9l-0.8-0.8c0.9-0.6,1.5-1.5,1.8-2.6
		c-0.6,0.3-1.2,0.5-1.9,0.7l-0.4-1c0.8-0.2,1.7-0.5,2.5-0.9v-1h-1.9v-1h1.9V9.7h-1.9v-1h1.9V7h1L37.8,12.8z M41.9,15.1h-2.2v2.5h-1
		V7h1v1.7h2.1v1h-2.1v1.6h1.9v1h-1.9V14h2.2L41.9,15.1z"/>
</g>
</svg>
