<?xml version="1.0" encoding="utf-8"?>
<!-- Generator: Adobe Illustrator 24.2.3, SVG Export Plug-In . SVG Version: 6.00 Build 0)  -->
<svg version="1.1" id="圖層_1" xmlns="http://www.w3.org/2000/svg" xmlns:xlink="http://www.w3.org/1999/xlink" x="0px" y="0px"
	 viewBox="0 0 24 24" style="enable-background:new 0 0 24 24;" xml:space="preserve">
<style type="text/css">
	.st0{fill:#999999;}
</style>
<g id="Group_52">
	<path id="Path_60" class="st0" d="M4.2,13.4c0.2,1.7,1.1,3.3,2.5,4.3l0,0C6.3,17,6,16.1,5.9,15.2c-0.4-4.5,3.8-4.9,3.3-9.4
		C9.1,4.1,8.2,2.5,6.8,1.5l0,0C7.2,2.3,7.5,3.1,7.6,4C8,8.5,3.8,8.9,4.2,13.4z"/>
	<path id="Path_61" class="st0" d="M9.8,13.4c0.2,1.7,1.1,3.3,2.5,4.3l0,0c-0.5-0.7-0.7-1.6-0.8-2.4c-0.4-4.5,3.8-4.9,3.3-9.4
		c-0.2-1.7-1.1-3.3-2.5-4.3l0,0C12.8,2.3,13,3.1,13.1,4C13.5,8.5,9.3,8.9,9.8,13.4z"/>
	<path id="Path_62" class="st0" d="M15.3,13.4c0.2,1.7,1.1,3.3,2.5,4.3l0,0c-0.5-0.7-0.8-1.6-0.9-2.4c-0.4-4.5,3.8-4.9,3.3-9.4
		c-0.2-1.7-1.1-3.3-2.5-4.3l0,0c0.5,0.7,0.7,1.6,0.8,2.4C19.1,8.5,14.9,8.9,15.3,13.4z"/>
	<path id="Path_63" class="st0" d="M24,18.3c-0.1-1.4-0.9-2.6-2.1-3.2c-0.1-0.1-0.2,0-0.3,0c0,0,0,0,0,0c0,0.1,0,0.1,0,0.2
		c0.1,0.3,0.2,0.6,0.3,0.9l0,0c0,0.1,0,0.1,0,0.2c0,2.6-4.4,4.6-9.8,4.6S2.2,19,2.2,16.5c0-0.4,0.1-0.8,0.3-1.1
		c0.1-0.1,0-0.2-0.1-0.3c0,0,0,0,0,0c-0.1,0-0.1,0-0.2,0c-1.2,0.7-2,1.9-2.1,3.3C0,21.5,5.4,24,12,24h0.2C18.7,24,24,21.4,24,18.3z"
		/>
</g>
</svg>
