<?xml version="1.0" encoding="utf-8"?>
<!-- Generator: Adobe Illustrator 23.1.0, SVG Export Plug-In . SVG Version: 6.00 Build 0)  -->
<svg version="1.1" id="圖層_1" xmlns="http://www.w3.org/2000/svg" xmlns:xlink="http://www.w3.org/1999/xlink" x="0px" y="0px"
	 viewBox="0 0 60 60" style="enable-background:new 0 0 60 60;" xml:space="preserve">
<style type="text/css">
	.st0{fill:#2067BF;}
</style>
<title>icon</title>
<g id="index_block_bottom2">
	<path class="st0" d="M50.3,0.9c1.9,0,3.5,1.6,3.5,3.5v51.3c0,1.9-1.6,3.5-3.5,3.5H9.7c-1.9,0-3.5-1.6-3.5-3.5V4.3
		c0-1.9,1.6-3.5,3.5-3.5L50.3,0.9 M50.3,0H9.7C7.3,0,5.4,1.9,5.4,4.3v51.3c0,2.4,1.9,4.3,4.3,4.3l0,0h40.6c2.4,0,4.3-1.9,4.3-4.3
		V4.3C54.6,1.9,52.7,0,50.3,0z"/>
	<path class="st0" d="M5.4,37.7V3.9C5.4,1.7,7.1,0,9.2,0h41.5c2.1,0,3.9,1.7,3.9,3.9l0,0v33.9H5.4V37.7z"/>
	<rect x="9.4" y="41.2" class="st0" width="11.4" height="3"/>
	<rect x="9.4" y="47.1" class="st0" width="41" height="1.5"/>
	<rect x="9.4" y="50.6" class="st0" width="32.1" height="1.5"/>
</g>
</svg>
