<?xml version="1.0" encoding="utf-8"?>
<!-- Generator: Adobe Illustrator 24.0.1, SVG Export Plug-In . SVG Version: 6.00 Build 0)  -->
<svg version="1.1" id="圖層_1" xmlns="http://www.w3.org/2000/svg" xmlns:xlink="http://www.w3.org/1999/xlink" x="0px" y="0px"
	 viewBox="0 0 60 60" style="enable-background:new 0 0 60 60;" xml:space="preserve">
<style type="text/css">
	.st0{fill:#2362AE;}
	.st1{fill:none;}
	.st2{fill:#FFFFFF;}
</style>
<g id="_2.產品內容2-行程介紹_2_">
	<path class="st1" d="M28,56.5C21.4,47.9,8.8,29.6,8.8,21.3C8.8,10.6,17.4,2,28,2s19.2,8.6,19.2,19.2C47.3,29.6,34.6,47.9,28,56.5z"
		/>
	<path class="st0" d="M28,4.3c9.4,0,17,7.6,17.1,17.1c0,6.5-9.4,21.3-17.1,31.7c-7.6-10.3-17-25.2-17-31.7C11,11.9,18.6,4.3,28,4.3
		 M28,0C16.3,0,6.7,9.5,6.7,21.3C6.7,33.1,28,60,28,60l0,0c0,0,21.3-26.9,21.3-38.7C49.4,9.5,39.8,0,28,0z"/>
	<circle class="st1" cx="28" cy="21.3" r="6.4"/>
	<path class="st0" d="M28,17.1c2.4,0,4.3,1.9,4.3,4.3s-1.9,4.3-4.3,4.3s-4.3-1.9-4.3-4.3l0,0C23.8,19,25.7,17.1,28,17.1 M28,12.8
		c-4.7,0-8.5,3.8-8.5,8.5s3.8,8.5,8.5,8.5s8.5-3.8,8.5-8.5c0,0,0,0,0,0C36.6,16.6,32.7,12.8,28,12.8z"/>
</g>
</svg>
