<svg id="圖層_1" data-name="圖層 1" xmlns="http://www.w3.org/2000/svg" viewBox="0 0 60 60"><defs><style>.cls-1{fill:#ccc;}.cls-2{fill:#fff;}</style></defs><title>icons</title><rect class="cls-1" width="60" height="60" rx="5"/><path class="cls-1" d="M23.55,27.78H48.34a1.54,1.54,0,0,1,1.54,1.54v9.34a0,0,0,0,1,0,0H23.55a0,0,0,0,1,0,0V27.78A0,0,0,0,1,23.55,27.78Z"/><path class="cls-2" d="M50.19,39.77H22.68V27H48a2.17,2.17,0,0,1,2.17,2.15ZM24.38,38.08h24.1v-9a.47.47,0,0,0-.46-.46H24.38Z"/><path class="cls-2" d="M13.69,27a5.22,5.22,0,0,0-5.22,5.22v10.4H38.73V27Z"/><path class="cls-2" d="M50.1,25.18a.15.15,0,0,1-.08.23,19.54,19.54,0,0,1-6.67,1.05,25.81,25.81,0,0,1-6.76-.83.18.18,0,0,1-.08-.29c.77-.83,3.86-3.91,7.55-3.91A7.08,7.08,0,0,1,50.1,25.18Z"/><polygon class="cls-2" points="10.96 48.32 8.47 48.32 8.47 40.83 52.29 40.83 52.29 43.14 10.96 43.14 10.96 48.32"/><rect class="cls-2" x="51.45" y="17.12" width="2.48" height="31.2"/></svg>