<?xml version="1.0" encoding="utf-8"?>
<!-- Generator: Adobe Illustrator 23.0.6, SVG Export Plug-In . SVG Version: 6.00 Build 0)  -->
<svg version="1.1" id="圖層_1" xmlns="http://www.w3.org/2000/svg" xmlns:xlink="http://www.w3.org/1999/xlink" x="0px" y="0px"
	 viewBox="0 0 60 60" style="enable-background:new 0 0 60 60;" xml:space="preserve">
<style type="text/css">
	.st0{fill:#2067BF;}
	.st1{fill:#FFFFFF;}
</style>
<title>icon</title>
<g id="block_middle2">
	<path class="st0" d="M50.8,0.8c1.7,0,3.1,1.4,3.1,3.1l0,0v52.3c0,1.7-1.4,3.1-3.1,3.1l0,0H9.2c-1.7,0-3.1-1.4-3.1-3.1l0,0V3.9
		c0-1.7,1.4-3.1,3.1-3.1l0,0H50.8 M50.8,0H9.2C7.1,0,5.4,1.7,5.4,3.9v52.3c0,2.1,1.7,3.9,3.9,3.9c0,0,0,0,0,0h41.5
		c2.1,0,3.9-1.7,3.9-3.9l0,0V3.9C54.6,1.7,52.9,0,50.8,0C50.8,0,50.8,0,50.8,0z"/>
	<path class="st0" d="M5.4,37.5V3.9C5.4,1.7,7.1,0,9.2,0h41.5c2.1,0,3.9,1.7,3.9,3.9c0,0,0,0,0,0v33.6c0,0.1-0.1,0.2-0.2,0.2H5.6
		C5.5,37.7,5.4,37.6,5.4,37.5C5.4,37.5,5.4,37.5,5.4,37.5z"/>
	<rect x="9.4" y="41.7" class="st0" width="22.6" height="2"/>
	<rect x="9.4" y="46.8" class="st0" width="22.6" height="2"/>
	<rect x="44.2" y="41.7" class="st0" width="6.2" height="2"/>
	<rect x="44.2" y="46.8" class="st0" width="6.2" height="2"/>
	<rect x="44.2" y="52" class="st0" width="6.2" height="2"/>
	<rect x="9.4" y="52" class="st0" width="22.6" height="2"/>
	<path class="st1" d="M27.6,31.4h-9.1v-1h4v-3H20c-0.6,1.1-1.4,2-2.3,2.9L17,29.4c1.5-1.4,2.6-3.3,3.1-5.3h-2.8V23h3.2
		c0.2-0.6,0.3-1.3,0.4-1.9l1.1,0.1c-0.1,0.4-0.2,1-0.3,1.8h5.9v1h-6.1c-0.2,0.8-0.5,1.5-0.8,2.2H27v1h-3.3v3h4L27.6,31.4z"/>
	<path class="st1" d="M38.7,31.1h-5.6V30l2.6-2.6c0.5-0.5,0.9-1,1.3-1.5c0.3-0.4,0.4-0.9,0.4-1.4c0-1-0.5-1.5-1.6-1.5
		c-0.9,0-1.7,0.4-2.3,1v-1.3c0.7-0.5,1.6-0.8,2.5-0.8c0.7,0,1.4,0.2,2,0.7c0.5,0.5,0.8,1.1,0.7,1.8c0,0.6-0.2,1.1-0.5,1.6
		c-0.5,0.7-1,1.4-1.6,2l-2,1.9l0,0h4L38.7,31.1z"/>
	<path class="st1" d="M27.5,14h-4.1v3.5h-1.1V14h-4.1V9h4.1V7h1.1v2h4.1L27.5,14z M22.3,13v-3h-3v3H22.3z M26.4,13v-3h-3v3H26.4z"/>
	<path class="st1" d="M34,12.5c-0.3,0.2-0.6,0.3-0.9,0.4v3.4c0,0.3-0.1,0.6-0.2,0.8c-0.2,0.3-0.5,0.4-1.1,0.4h-0.6l-0.3-1
		c0.4,0,0.7,0,1.1,0c0.1,0,0.1-0.1,0.1-0.3v-2.8l-1,0.4l-0.3-1c0.6-0.2,1-0.4,1.3-0.5V10h-1.2V9H32V7h1v1.9h0.8v1H33v1.8
		c0.3-0.1,0.5-0.2,0.8-0.4L34,12.5z M37.2,12.8c0.1,1.9-0.7,3.7-2.2,4.9l-0.8-0.8c0.9-0.6,1.5-1.5,1.8-2.6c-0.6,0.3-1.2,0.5-1.9,0.7
		l-0.5-1c0.8-0.2,1.7-0.5,2.5-0.9v-1h-1.9v-1h1.9V9.7h-1.9v-1h1.9V7h1L37.2,12.8z M41.3,15.1h-2.2v2.5h-1V7h1v1.7h2.1v1h-2.1v1.6H41
		v1h-1.9V14h2.2L41.3,15.1z"/>
</g>
</svg>
