<svg id="圖層_1" data-name="圖層 1" xmlns="http://www.w3.org/2000/svg" viewBox="0 0 288.02 335.99"><defs><style>.cls-1{fill:#e8e8e8;}</style></defs><title>icon_sorting</title><path class="cls-1" d="M226,328H190V100a12,12,0,0,0-12-12H154a12,12,0,0,0-12,12V328H106a12,12,0,0,0-8.47,20.49l60,72a12,12,0,0,0,17,0l60-72A12,12,0,0,0,226,328Z" transform="translate(-94 -88)"/><path class="cls-1" d="M250,184h36V412a12,12,0,0,0,12,12h24a12,12,0,0,0,12-12V184h36a12,12,0,0,0,8.47-20.49l-60-72a12,12,0,0,0-17,0l-60,72A12,12,0,0,0,250,184Z" transform="translate(-94 -88)"/></svg>