<svg xmlns="http://www.w3.org/2000/svg" viewBox="0 0 60 60"><defs><style>.cls-1{fill:#ccc;}.cls-2{fill:#fff;}</style></defs><title>icon</title><g id="index_block_bottom4"><path class="cls-1" d="M50.3.87a3.47,3.47,0,0,1,3.46,3.46V55.67a3.47,3.47,0,0,1-3.46,3.46H9.7a3.47,3.47,0,0,1-3.46-3.46V4.33A3.47,3.47,0,0,1,9.7.87H50.3m0-.87H9.7A4.33,4.33,0,0,0,5.37,4.33V55.67A4.33,4.33,0,0,0,9.7,60H50.3a4.33,4.33,0,0,0,4.33-4.33V4.33A4.33,4.33,0,0,0,50.3,0Z"/><path class="cls-1" d="M5.37,37.72V3.86A3.86,3.86,0,0,1,9.23,0H50.77a3.86,3.86,0,0,1,3.86,3.86V37.72Z"/><rect class="cls-1" x="9.39" y="41.21" width="11.38" height="3"/><rect class="cls-1" x="9.39" y="47.09" width="41.02" height="1.5"/><rect class="cls-1" x="9.39" y="50.63" width="32.08" height="1.5"/><path class="cls-2" d="M29.68,31.41H20.59v-1h4v-3H22.08a11.28,11.28,0,0,1-2.26,2.87l-.73-.88a11.37,11.37,0,0,0,3.15-5.27H19.37V23h3.16a12.63,12.63,0,0,0,.35-1.9l1.13.15q-.09.66-.33,1.75h5.88v1.05H23.41a21.16,21.16,0,0,1-.81,2.24H29v1H25.72v3h3.95Z"/><path class="cls-2" d="M41.21,28.86H40.07V31.1H38.77V28.86H34.61V28l4-5.95h1.51v5.79h1.14Zm-2.44-1V24.26q0-.4,0-.91h0a5.33,5.33,0,0,1-.35.7l-2.5,3.76Z"/><path class="cls-2" d="M28.64,8.38H23.44v1.93A25,25,0,0,1,27.77,13L27.1,14a21.62,21.62,0,0,0-3.66-2.45v6H22.35V8.38H18.21V7.33H28.64Z"/><path class="cls-2" d="M34.55,12.49q-.48.25-.9.43v3.35a1.49,1.49,0,0,1-.24.81q-.24.38-1.1.38l-.62,0-.31-1a7.11,7.11,0,0,0,1.1,0q.12,0,.12-.26V13.4l-1,.35-.28-1q.93-.34,1.28-.49V10H31.42v-1H32.6V7h1V8.93h.79v1h-.79v1.79a6.5,6.5,0,0,0,.77-.36Zm3.22.26a6.06,6.06,0,0,1-2.19,4.86l-.79-.79a4.63,4.63,0,0,0,1.79-2.57q-.91.4-1.9.72L34.24,14a16.47,16.47,0,0,0,2.48-.9v-1H34.85v-1h1.87V9.7H34.8v-1h1.92V7h1Zm4.1,2.31H39.69v2.46h-1V7h1V8.67h2.09v1H39.69v1.61h1.86v1H39.69V14h2.17Z"/></g></svg>