<?xml version="1.0" encoding="utf-8"?>
<!-- Generator: Adobe Illustrator 24.2.3, SVG Export Plug-In . SVG Version: 6.00 Build 0)  -->
<svg version="1.1" id="圖層_1" xmlns="http://www.w3.org/2000/svg" xmlns:xlink="http://www.w3.org/1999/xlink" x="0px" y="0px"
	 viewBox="0 0 24 24" style="enable-background:new 0 0 24 24;" xml:space="preserve">
<style type="text/css">
	.st0{fill:none;}
	.st1{fill:#999999;}
</style>
<path id="Path_66" class="st0" d="M0,0h24v24H0V0z"/>
<path id="Path_67" class="st1" d="M12,0C7,0,1.9,0.6,1.9,5v12c0,2.4,2,4.4,4.4,4.4l-1.5,1.5c-0.2,0.2-0.2,0.6,0,0.9c0,0,0,0,0,0
	C5,23.9,5.1,24,5.3,24h1.4c0.2,0,0.3-0.1,0.4-0.2l2.3-2.3h5l2.3,2.3c0.1,0.1,0.3,0.2,0.4,0.2h1.4c0.3,0,0.6-0.3,0.6-0.6
	c0-0.2-0.1-0.3-0.2-0.5l-1.4-1.5c2.4,0,4.4-2,4.4-4.4c0,0,0,0,0,0l0,0V5C22.1,0.6,17,0,12,0z M6.3,18.9c-1,0-1.9-0.8-1.9-1.9
	s0.8-1.9,1.9-1.9S8.2,16,8.2,17S7.4,18.9,6.3,18.9z M10.7,10.1H4.4V5h6.3V10.1z M17.7,18.9c-1,0-1.9-0.8-1.9-1.9s0.8-1.9,1.9-1.9
	c1,0,1.9,0.8,1.9,1.9C19.6,18.1,18.7,18.9,17.7,18.9z M19.6,10.1h-6.3V5h6.3V10.1z"/>
</svg>
