<svg xmlns="http://www.w3.org/2000/svg" viewBox="0 0 60 60"><defs><style>.cls-1,.cls-3,.cls-4{fill:#fff;}.cls-2{fill:#ccc;}.cls-3,.cls-4{font-size:12px;font-family:MicrosoftJhengHeiBold, Microsoft JhengHei;}.cls-3{letter-spacing:0.34em;}.cls-4{letter-spacing:0.1em;}</style></defs><title>中排左3</title><g id="_3.產品主頁1-1-選擇頁面" data-name="3.產品主頁1-1-選擇頁面"><rect class="cls-1" width="60" height="60"/><path class="cls-2" d="M50.76.77a3.09,3.09,0,0,1,3.09,3.09V56.13a3.09,3.09,0,0,1-3.09,3.09H9.23a3.09,3.09,0,0,1-3.09-3.09V3.86A3.09,3.09,0,0,1,9.23.77H50.76m0-.77H9.23A3.86,3.86,0,0,0,5.37,3.86V56.13A3.86,3.86,0,0,0,9.23,60H50.76a3.87,3.87,0,0,0,3.87-3.87V3.86A3.86,3.86,0,0,0,50.76,0Z"/><path class="cls-2" d="M5.37,37.48V3.86A3.86,3.86,0,0,1,9.23,0H50.76a3.86,3.86,0,0,1,3.87,3.86V37.48a.23.23,0,0,1-.24.23H5.6A.23.23,0,0,1,5.37,37.48Z"/><rect class="cls-2" x="9.36" y="41.7" width="22.61" height="2"/><rect class="cls-2" x="9.36" y="46.84" width="22.61" height="2"/><rect class="cls-2" x="44.18" y="41.7" width="6.18" height="2"/><rect class="cls-2" x="44.18" y="46.84" width="6.18" height="2"/><rect class="cls-2" x="44.18" y="51.97" width="6.18" height="2"/><rect class="cls-2" x="9.36" y="51.97" width="22.61" height="2"/><text class="cls-3" transform="translate(18.39 31.1)">左3</text><text class="cls-4" transform="translate(17.4 16.9)">中排</text></g></svg>