<?xml version="1.0" encoding="utf-8"?>
<!-- Generator: Adobe Illustrator 24.2.3, SVG Export Plug-In . SVG Version: 6.00 Build 0)  -->
<svg version="1.1" id="圖層_1" xmlns="http://www.w3.org/2000/svg" xmlns:xlink="http://www.w3.org/1999/xlink" x="0px" y="0px"
	 viewBox="0 0 24 24" style="enable-background:new 0 0 24 24;" xml:space="preserve">
<style type="text/css">
	.st0{fill:none;}
	.st1{fill:#999999;}
</style>
<path id="Path_64" class="st0" d="M0,0h24v24H0V0z"/>
<path id="Path_65" class="st1" d="M3.3,11.8v4.6c0,1,0.8,1.7,1.7,1.7s1.7-0.8,1.7-1.7v-4.6c0-1-0.8-1.7-1.7-1.7S3.3,10.9,3.3,11.8z
	 M10.3,11.8v4.6c0,1,0.8,1.7,1.7,1.7s1.7-0.8,1.7-1.7l0,0v-4.6c0-1-0.8-1.7-1.7-1.7S10.3,10.9,10.3,11.8z M2.8,24h18.4
	c1,0,1.7-0.8,1.7-1.7c0-1-0.8-1.7-1.7-1.7H2.8c-1,0-1.7,0.8-1.7,1.7C1,23.2,1.8,24,2.8,24z M17.2,11.8v4.6c0,1,0.8,1.7,1.7,1.7
	c1,0,1.7-0.8,1.7-1.7l0,0v-4.6c0-1-0.8-1.7-1.7-1.7C18,10.1,17.2,10.9,17.2,11.8z M11,0.2L1.8,5.1C1.1,5.4,0.8,6.3,1.2,7
	c0.2,0.5,0.7,0.8,1.3,0.8h19c0.8,0,1.4-0.6,1.4-1.4c0-0.5-0.3-1-0.8-1.3l-9.1-4.8C12.4-0.1,11.6-0.1,11,0.2L11,0.2z"/>
</svg>
