<svg id="圖層_1" data-name="圖層 1" xmlns="http://www.w3.org/2000/svg" viewBox="0 0 60 60"><defs><style>.cls-1{fill:#2362ae;}.cls-2{fill:#fff;}</style></defs><title>icons</title><rect class="cls-1" width="60" height="60" rx="5"/><path class="cls-2" d="M43.71,22.16l-8.12,3.35L22,21.78l-2.43,1L29,28.22l-8.08,3.33a.8.8,0,0,1-.59,0L9.77,27.91l-2,.83,5.64,4.59a.91.91,0,0,1,.3.77,1,1,0,0,1-.51.65l-3,1.25.94,2.28c3.41-.1,11-.49,13-1.33L31,34.1a.86.86,0,0,1,.75,0,.82.82,0,0,1,.41.95l-3,11,2.43-1,8.27-14.44a.85.85,0,0,1,.41-.36l10.92-4.51c1.3-.53,2.81-2,2.33-3.13S48,20.4,43.71,22.16Z"/><path class="cls-2" d="M54.24,51.74H7.17a.75.75,0,0,1,0-1.5H54.24a.75.75,0,0,1,0,1.5Z"/></svg>