<svg xmlns="http://www.w3.org/2000/svg" viewBox="0 0 60 60"><defs><style>.cls-1{fill:#ccc;}</style></defs><title>icon</title><g id="text_list"><rect class="cls-1" x="11.71" y="4.59" width="48.29" height="1.62"/><rect class="cls-1" x="11.71" y="9.35" width="37.76" height="1.62"/><path class="cls-1" d="M1.32,7.55l.29-1.38a9.39,9.39,0,0,0,3.11-2h.95L4,12.08H2.43L3.58,6.61a6.86,6.86,0,0,1-1.12.57A7,7,0,0,1,1.32,7.55Z"/><rect class="cls-1" x="11.71" y="19.09" width="48.29" height="1.62"/><rect class="cls-1" x="11.71" y="23.85" width="37.76" height="1.62"/><path class="cls-1" d="M2.93,21.15l-1.52-.23a2.73,2.73,0,0,1,.86-1.68A2.49,2.49,0,0,1,4,18.65a2.44,2.44,0,0,1,1.75.6,2,2,0,0,1,.63,1.52,2.44,2.44,0,0,1-.2.94,3.75,3.75,0,0,1-.64,1q-.32.37-1,1t-1,.92a6.88,6.88,0,0,0-.45.52H5.79L5.5,26.58H.67A3.38,3.38,0,0,1,1,25.47a4.65,4.65,0,0,1,.67-1Q2.09,24,3.16,23q.8-.76,1-1a3.12,3.12,0,0,0,.52-.73,1.35,1.35,0,0,0,.14-.55.9.9,0,0,0-.24-.65.79.79,0,0,0-.6-.25.88.88,0,0,0-.65.28A2,2,0,0,0,2.93,21.15Z"/><rect class="cls-1" x="11.71" y="33.59" width="48.29" height="1.62"/><rect class="cls-1" x="11.71" y="38.35" width="37.76" height="1.62"/><path class="cls-1" d="M.56,39l1.49-.18a1.56,1.56,0,0,0,.33.87A.87.87,0,0,0,3,40a1.18,1.18,0,0,0,.88-.36,1.24,1.24,0,0,0,.35-.91A1,1,0,0,0,4,37.92a1,1,0,0,0-.76-.28l-.25,0,.27-1.29H3.4a1.31,1.31,0,0,0,.95-.32,1.13,1.13,0,0,0,.33-.85.81.81,0,0,0-.22-.6.78.78,0,0,0-.58-.22.86.86,0,0,0-.6.24,1.73,1.73,0,0,0-.42.84l-1.42-.28a3.13,3.13,0,0,1,.75-1.34,2.51,2.51,0,0,1,1.8-.7,2.18,2.18,0,0,1,1.66.61,2,2,0,0,1,.57,1.45,1.83,1.83,0,0,1-.36,1.11,2.09,2.09,0,0,1-1,.73,1.73,1.73,0,0,1,1,1.56,2.42,2.42,0,0,1-.62,1.6,2.75,2.75,0,0,1-2.2,1,2.43,2.43,0,0,1-1.66-.57A2.52,2.52,0,0,1,.56,39Z"/><rect class="cls-1" x="11.71" y="48.09" width="48.29" height="1.62"/><rect class="cls-1" x="11.71" y="52.85" width="37.76" height="1.62"/><path class="cls-1" d="M3.43,54H.3l.27-1.29,4.3-5H6.22l-1,5h1L5.86,54h-1l-.34,1.61H3.09Zm.28-1.31.51-2.46-2.1,2.46Z"/></g></svg>