<?xml version="1.0" encoding="utf-8"?>
<!-- Generator: Adobe Illustrator 24.0.1, SVG Export Plug-In . SVG Version: 6.00 Build 0)  -->
<svg version="1.1" id="圖層_1" xmlns="http://www.w3.org/2000/svg" xmlns:xlink="http://www.w3.org/1999/xlink" x="0px" y="0px"
	 viewBox="0 0 60 60" style="enable-background:new 0 0 60 60;" xml:space="preserve">
<style type="text/css">
	.st0{fill:#2362AE;}
	.st1{fill:#FFFFFF;}
</style>
<title>icons</title>
<path class="st0" d="M5,0h50c2.8,0,5,2.2,5,5v50c0,2.8-2.2,5-5,5H5c-2.8,0-5-2.2-5-5V5C0,2.2,2.2,0,5,0z"/>
<path class="st1" d="M42.3,35c3.7,1.4,5.9,3.5,5.9,5.8c0,4.4-8.2,6.6-18.3,6.6s-18.3-2.2-18.3-6.6c0-2.3,2.3-4.4,5.9-5.8
	c-6,1.6-10,4.5-10,7.6c0,5.1,10,9.2,22.3,9.2s22.3-4.1,22.3-9.2C52.3,39.4,48.4,36.6,42.3,35z"/>
<path class="st1" d="M22.8,27.4c0.3,0.8,0.7,1.7,1,2.5c0.3,0.9,0.4,1.7,0.5,2.6c0.2,1.5,0.1,3-0.3,4.4c-0.2,1-0.5,1.9-1,2.8
	c-0.2,0.3-0.3,0.5-0.4,0.7l-0.1,0.2l0.1-0.3c0-0.2,0.1-0.4,0.1-0.8c0.1-0.9,0.2-1.9,0.2-2.8c0-1.3-0.2-2.7-0.5-4
	c-0.2-0.8-0.4-1.5-0.7-2.2l-1-2.4c-0.7-1.7-1-3.6-1-5.4c0-1.5,0.3-3,0.7-4.4c0.3-0.9,0.7-1.8,1.2-2.7c0.2-0.3,0.4-0.6,0.6-0.8
	c0,0-0.1,0.4-0.3,1c-0.2,0.9-0.4,1.8-0.5,2.8C21.3,21.6,21.8,24.6,22.8,27.4z"/>
<path class="st1" d="M31.9,32.5c0.4,1.6,0.6,3.3,0.6,4.9c0,1.3-0.2,2.7-0.5,4c-0.2,0.9-0.6,1.8-1.1,2.5c-0.2,0.3-0.4,0.5-0.7,0.7
	c0.2-0.3,0.3-0.5,0.4-0.8c0.3-0.8,0.4-1.6,0.3-2.5c0-1.1-0.1-2.4-0.3-3.8c-0.2-1.5-0.4-3-0.8-4.4c-0.5-1.5-0.9-3.1-1.2-4.6
	c-0.3-1.4-0.2-2.8,0.1-4.1c0.2-0.9,0.6-1.7,1.1-2.5c0.2-0.3,0.4-0.5,0.6-0.8c-0.1,0.3-0.2,0.6-0.3,0.9c-0.2,0.8-0.3,1.7-0.3,2.5
	c0,1.2,0.2,2.4,0.6,3.6C30.9,29.3,31.4,30.8,31.9,32.5z"/>
<path class="st1" d="M37.5,24.3c0.6,1.9,1.5,3.7,2.1,5.5c0.6,1.6,0.8,3.4,0.6,5.1c-0.1,1.2-0.6,2.3-1.3,3.2
	c-0.2,0.2-0.4,0.5-0.7,0.6L37.9,39l0.2-0.2c0.2-0.2,0.3-0.5,0.4-0.8c0.4-1,0.6-2,0.5-3.1c-0.1-1.5-0.5-3-1.2-4.4
	c-0.9-1.8-1.7-3.6-2.4-5.5c-1.4-4.2-0.8-8.6,0.6-11.2c0.5-1,1.3-1.9,2.2-2.6c0.3-0.2,0.5-0.3,0.8-0.5l0.3-0.1L39,10.8
	c-0.2,0.2-0.4,0.4-0.6,0.6c-0.6,0.8-1.1,1.8-1.4,2.8C36.1,16.8,36.2,20.5,37.5,24.3z"/>
</svg>
