<?xml version="1.0" encoding="utf-8"?>
<!-- Generator: Adobe Illustrator 23.1.0, SVG Export Plug-In . SVG Version: 6.00 Build 0)  -->
<svg version="1.1" id="圖層_1" xmlns="http://www.w3.org/2000/svg" xmlns:xlink="http://www.w3.org/1999/xlink" x="0px" y="0px"
	 viewBox="0 0 60 60" style="enable-background:new 0 0 60 60;" xml:space="preserve">
<style type="text/css">
	.st0{fill:#CCCCCC;}
</style>
<title>icon</title>
<g id="block_bottom1">
	<path class="st0" d="M50.8,0.8c1.7,0,3.1,1.4,3.1,3.1l0,0v52.3c0,1.7-1.4,3.1-3.1,3.1l0,0H9.2c-1.7,0-3.1-1.4-3.1-3.1l0,0V3.9
		c0-1.7,1.4-3.1,3.1-3.1l0,0H50.8 M50.8,0H9.2C7.1,0,5.4,1.7,5.4,3.9v52.3c0,2.1,1.7,3.9,3.9,3.9c0,0,0,0,0,0h41.5
		c2.1,0,3.9-1.7,3.9-3.9l0,0V3.9C54.6,1.7,52.9,0,50.8,0C50.8,0,50.8,0,50.8,0z"/>
	<path class="st0" d="M5.4,37.5V3.9C5.4,1.7,7.1,0,9.2,0h41.5c2.1,0,3.9,1.7,3.9,3.9c0,0,0,0,0,0v33.6c0,0.1-0.1,0.2-0.2,0.2H5.6
		C5.5,37.7,5.4,37.6,5.4,37.5C5.4,37.5,5.4,37.5,5.4,37.5z"/>
	<rect x="9.4" y="41.7" class="st0" width="22.6" height="2"/>
	<rect x="9.4" y="46.8" class="st0" width="22.6" height="2"/>
	<rect x="44.2" y="41.7" class="st0" width="6.2" height="2"/>
	<rect x="44.2" y="46.8" class="st0" width="6.2" height="2"/>
	<rect x="44.2" y="52" class="st0" width="6.2" height="2"/>
	<rect x="9.4" y="52" class="st0" width="22.6" height="2"/>
</g>
</svg>
