<svg xmlns="http://www.w3.org/2000/svg" viewBox="0 0 73.52 44.68"><defs><style>.cls-1{fill:#fff;}.cls-2{fill:none;stroke:#000;stroke-miterlimit:10;stroke-width:0.5px;}.cls-3{fill:#fc0;}.cls-4{font-size:10px;font-family:MicrosoftJhengHeiBold, Microsoft JhengHei;letter-spacing:0.1em;}</style></defs><title>拖拉</title><g id="_1.選擇產品類型" data-name="1.選擇產品類型"><rect class="cls-1" x="-489.4" y="-112.42" width="1143.8" height="680"/><path class="cls-2" d="M39.94,14.34V9.71a1.16,1.16,0,0,0-1.13-1.26H38.6a1.33,1.33,0,0,0-1.17,1.29v4c0,.33,0,.67-.34.67h0c-.35,0-.91-.36-.91-.71V7.25a1.17,1.17,0,0,0-1-1.29H35a1.32,1.32,0,0,0-1.33,1.26v6.52a.62.62,0,0,1-.63.61.63.63,0,0,1-.63-.62V5.43a1.16,1.16,0,0,0-1-1.29h-.22a1.33,1.33,0,0,0-1.34,1.26v8.33a.63.63,0,0,1-.63.62.62.62,0,0,1-.63-.61V7.25A1.16,1.16,0,0,0,27.66,6h-.23a1.34,1.34,0,0,0-1.34,1.26v9.41c0,.35-.12.58-.42.58a.42.42,0,0,1-.32-.16l-1.46-1.42a1.2,1.2,0,0,0-.86-.36,1.24,1.24,0,0,0-.87,2.13l5.33,7h0l.13,1.78a.55.55,0,0,0,.53.5h9.3a.54.54,0,0,0,.53-.47l.24-1.85c0-.08-.09-.15,0-.22C39.59,21.94,39.94,18.29,39.94,14.34Z"/><polygon class="cls-3" points="47.26 4.13 43.56 9.02 45.68 9.02 45.68 13.72 49.07 13.72 49.07 9.02 50.97 9.02 47.26 4.13"/><polygon class="cls-3" points="47.26 26.7 43.56 21.81 45.68 21.81 45.68 17.11 49.07 17.11 49.07 21.81 50.97 21.81 47.26 26.7"/><text class="cls-4" transform="translate(4.55 38.06)">拖拉即可排序</text></g></svg>