<?xml version="1.0" encoding="utf-8"?>
<!-- Generator: Adobe Illustrator 23.0.6, SVG Export Plug-In . SVG Version: 6.00 Build 0)  -->
<svg version="1.1" id="圖層_1" xmlns="http://www.w3.org/2000/svg" xmlns:xlink="http://www.w3.org/1999/xlink" x="0px" y="0px"
	 viewBox="0 0 60 60" style="enable-background:new 0 0 60 60;" xml:space="preserve">
<style type="text/css">
	.st0{fill:#CCCCCC;}
	.st1{fill:#FFFFFF;}
</style>
<title>icon_block_middle</title>
<g id="block_middle1">
	<path class="st0" d="M50.8,0.8c1.7,0,3.1,1.4,3.1,3.1l0,0l0,0v52.3c0,1.7-1.4,3.1-3.1,3.1l0,0H9.2c-1.7,0-3.1-1.4-3.1-3.1l0,0l0,0
		V3.9c0-1.7,1.4-3.1,3.1-3.1l0,0H50.8 M50.8,0H9.2C7.1,0,5.4,1.7,5.4,3.9v52.3c0,2.1,1.7,3.9,3.9,3.9c0,0,0,0,0,0h41.5
		c2.1,0,3.9-1.7,3.9-3.9l0,0l0,0V3.9C54.6,1.7,52.9,0,50.8,0C50.8,0,50.8,0,50.8,0z"/>
	<path class="st0" d="M5.4,37.5V3.9C5.4,1.7,7.1,0,9.2,0h41.5c2.1,0,3.9,1.7,3.9,3.9c0,0,0,0,0,0l0,0v33.6c0,0.1-0.1,0.2-0.2,0.2
		H5.6C5.5,37.7,5.4,37.6,5.4,37.5C5.4,37.5,5.4,37.5,5.4,37.5L5.4,37.5z"/>
	<rect x="9.4" y="41.7" class="st0" width="22.6" height="2"/>
	<rect x="9.4" y="46.8" class="st0" width="22.6" height="2"/>
	<rect x="44.2" y="41.7" class="st0" width="6.2" height="2"/>
	<rect x="44.2" y="46.8" class="st0" width="6.2" height="2"/>
	<rect x="44.2" y="52" class="st0" width="6.2" height="2"/>
	<rect x="9.4" y="52" class="st0" width="22.6" height="2"/>
	<path class="st1" d="M28,20.6h-4.1v3.5h-1.1v-3.5h-4.1v-5h4.1v-2h1.1v2H28V20.6z M22.8,19.6v-3h-3v3H22.8z M26.9,19.6v-3h-3v3H26.9
		z"/>
	<path class="st1" d="M32.8,17.8v6H32v-9.9h4.1v3.9H32.8z M32.8,14.5v1h2.5v-1H32.8z M35.3,17.1v-1h-2.5v1H35.3z M35.3,22.8v0.6
		h-0.8v-4.7h4.2v4.1L35.3,22.8z M35.3,19.3v1.1H38v-1.1H35.3z M38,22.1V21h-2.7v1.1H38z M41.4,22.7c0,0.5-0.1,0.8-0.5,1
		c-0.6,0.1-1.3,0.2-1.9,0.1c-0.1-0.3-0.2-0.6-0.3-0.9c0.5,0,1.1,0,1.6,0c0.2,0,0.3-0.1,0.3-0.3v-4.9h-3.4v-3.9h4.2L41.4,22.7z
		 M38,14.5v1h2.6v-1H38z M40.5,17.1v-1h-2.6v1H40.5z"/>
</g>
</svg>
