<?xml version="1.0" encoding="utf-8"?>
<!-- Generator: Adobe Illustrator 23.0.6, SVG Export Plug-In . SVG Version: 6.00 Build 0)  -->
<svg version="1.1" id="圖層_1" xmlns="http://www.w3.org/2000/svg" xmlns:xlink="http://www.w3.org/1999/xlink" x="0px" y="0px"
	 viewBox="0 0 60 60" style="enable-background:new 0 0 60 60;" xml:space="preserve">
<style type="text/css">
	.st0{fill:#2067BF;}
</style>
<title>icon</title>
<g id="text_list">
	<rect x="11.7" y="4.6" class="st0" width="48.3" height="1.6"/>
	<rect x="11.7" y="9.4" class="st0" width="37.8" height="1.6"/>
	<path class="st0" d="M1.3,7.6l0.3-1.4c1.2-0.5,2.2-1.1,3.1-2h0.9L4,12.1H2.4l1.1-5.5C3.2,6.8,2.8,7,2.5,7.2
		C2.1,7.3,1.7,7.5,1.3,7.6z"/>
	<rect x="11.7" y="19.1" class="st0" width="48.3" height="1.6"/>
	<rect x="11.7" y="23.9" class="st0" width="37.8" height="1.6"/>
	<path class="st0" d="M2.9,21.1l-1.5-0.2c0.1-0.6,0.4-1.2,0.9-1.7c0.5-0.4,1.1-0.6,1.7-0.6c0.6,0,1.3,0.2,1.8,0.6
		c0.4,0.4,0.6,0.9,0.6,1.5c0,0.3-0.1,0.6-0.2,0.9c-0.2,0.4-0.4,0.7-0.6,1c-0.2,0.2-0.5,0.6-1,1c-0.5,0.4-0.8,0.7-1,0.9
		c-0.2,0.2-0.3,0.3-0.5,0.5h2.7l-0.3,1.4H0.7c0-0.4,0.2-0.8,0.3-1.1c0.2-0.4,0.4-0.7,0.7-1c0.3-0.3,0.8-0.8,1.5-1.5
		c0.5-0.5,0.9-0.8,1-1c0.2-0.2,0.4-0.5,0.5-0.7c0.1-0.2,0.1-0.4,0.1-0.5c0-0.2-0.1-0.5-0.2-0.6c-0.2-0.2-0.4-0.3-0.6-0.3
		c-0.2,0-0.5,0.1-0.7,0.3C3.1,20.4,3,20.8,2.9,21.1z"/>
	<rect x="11.7" y="33.6" class="st0" width="48.3" height="1.6"/>
	<rect x="11.7" y="38.3" class="st0" width="37.8" height="1.6"/>
	<path class="st0" d="M0.6,39L2,38.8c0,0.3,0.1,0.6,0.3,0.9C2.5,39.9,2.8,40,3,40c0.3,0,0.7-0.1,0.9-0.4c0.2-0.2,0.4-0.6,0.3-0.9
		c0-0.3,0-0.6-0.2-0.8c-0.2-0.2-0.5-0.3-0.8-0.3H3l0.3-1.3h0.1c0.3,0,0.7-0.1,0.9-0.3c0.2-0.2,0.3-0.5,0.3-0.8
		c0-0.2-0.1-0.4-0.2-0.6c-0.2-0.2-0.4-0.2-0.6-0.2c-0.2,0-0.4,0.1-0.6,0.2c-0.2,0.2-0.4,0.5-0.4,0.8l-1.4-0.3c0.1-0.5,0.4-1,0.7-1.3
		c0.5-0.5,1.1-0.7,1.8-0.7c0.6,0,1.2,0.2,1.7,0.6c0.4,0.4,0.6,0.9,0.6,1.5c0,0.4-0.1,0.8-0.4,1.1c-0.3,0.3-0.6,0.6-1,0.7
		c0.6,0.3,1,0.9,1,1.6c0,0.6-0.2,1.2-0.6,1.6c-0.5,0.7-1.4,1-2.2,1c-0.6,0-1.2-0.2-1.7-0.6C0.9,40.2,0.6,39.6,0.6,39z"/>
	<rect x="11.7" y="48.1" class="st0" width="48.3" height="1.6"/>
	<rect x="11.7" y="52.8" class="st0" width="37.8" height="1.6"/>
	<path class="st0" d="M3.4,54H0.3l0.3-1.3l4.3-5h1.3l-1,5h1L5.9,54h-1l-0.3,1.6H3.1L3.4,54z M3.7,52.7l0.5-2.5l-2.1,2.5H3.7z"/>
</g>
</svg>
