<svg xmlns="http://www.w3.org/2000/svg" viewBox="0 0 60 60"><defs><style>.cls-1{fill:#ccc;}.cls-2{fill:#fff;}</style></defs><title>icon</title><g id="block_bottom1"><path class="cls-1" d="M50.77.77a3.09,3.09,0,0,1,3.09,3.09V56.14a3.09,3.09,0,0,1-3.09,3.09H9.23a3.09,3.09,0,0,1-3.09-3.09V3.86A3.09,3.09,0,0,1,9.23.77H50.77m0-.77H9.23A3.86,3.86,0,0,0,5.37,3.86V56.14A3.86,3.86,0,0,0,9.23,60H50.77a3.86,3.86,0,0,0,3.86-3.86V3.86A3.86,3.86,0,0,0,50.77,0Z"/><path class="cls-1" d="M5.37,37.48V3.86A3.86,3.86,0,0,1,9.23,0H50.77a3.86,3.86,0,0,1,3.86,3.86V37.48a.23.23,0,0,1-.23.23H5.61A.23.23,0,0,1,5.37,37.48Z"/><rect class="cls-1" x="9.36" y="41.7" width="22.61" height="2"/><rect class="cls-1" x="9.36" y="46.84" width="22.61" height="2"/><rect class="cls-1" x="44.19" y="41.7" width="6.18" height="2"/><rect class="cls-1" x="44.19" y="46.84" width="6.18" height="2"/><rect class="cls-1" x="44.19" y="51.97" width="6.18" height="2"/><rect class="cls-1" x="9.36" y="51.97" width="22.61" height="2"/><path class="cls-2" d="M27.64,31.41H18.55v-1h4v-3H20a11.28,11.28,0,0,1-2.26,2.87l-.73-.88a11.37,11.37,0,0,0,3.15-5.27H17.33V23h3.16a12.63,12.63,0,0,0,.35-1.9l1.13.15q-.09.66-.33,1.75h5.88v1.05H21.37a21.16,21.16,0,0,1-.81,2.24H27v1H23.68v3h3.95Z"/><path class="cls-2" d="M38.87,31.1H33.53V30h2V23.4l-2,.55V22.74l3.42-.9V30h2Z"/><path class="cls-2" d="M28,8.38H22.83v1.93A25,25,0,0,1,27.17,13L26.5,14a21.62,21.62,0,0,0-3.66-2.45v6H21.75V8.38H17.61V7.33H28Z"/><path class="cls-2" d="M33.95,12.5q-.48.25-.9.43v3.35a1.49,1.49,0,0,1-.24.81q-.24.38-1.1.38l-.62,0-.31-1a7.11,7.11,0,0,0,1.1,0q.12,0,.12-.26V13.4l-1,.35-.28-1q.93-.34,1.28-.49V10H30.81v-1H32V7h1V8.93h.79v1H33v1.79a6.5,6.5,0,0,0,.77-.36Zm3.22.26A6.06,6.06,0,0,1,35,17.62l-.79-.79A4.63,4.63,0,0,0,36,14.26q-.91.4-1.9.72L33.64,14a16.47,16.47,0,0,0,2.48-.9v-1H34.25v-1h1.87V9.7H34.2v-1h1.92V7h1Zm4.1,2.31H39.09v2.46h-1V7h1V8.67h2.09v1H39.09v1.61H41v1H39.09V14h2.17Z"/></g></svg>