<svg id="圖層_1" data-name="圖層 1" xmlns="http://www.w3.org/2000/svg" viewBox="0 0 384 336"><defs><style>.cls-1{fill:#2067bf;}</style></defs><title>icon_sorting_desc</title><path class="cls-1" d="M292,376H244a12,12,0,0,0-12,12v24a12,12,0,0,0,12,12h48a12,12,0,0,0,12-12V388A12,12,0,0,0,292,376Zm-96-48H160V100a12,12,0,0,0-12-12H124a12,12,0,0,0-12,12V328H76a12,12,0,0,0-8.47,20.48l60,72a12,12,0,0,0,17,0l60-72A12,12,0,0,0,196,328ZM388,184H244a12,12,0,0,0-12,12v24a12,12,0,0,0,12,12H388a12,12,0,0,0,12-12V196A12,12,0,0,0,388,184Zm-48,96H244a12,12,0,0,0-12,12v24a12,12,0,0,0,12,12h96a12,12,0,0,0,12-12V292A12,12,0,0,0,340,280ZM436,88H244a12,12,0,0,0-12,12v24a12,12,0,0,0,12,12H436a12,12,0,0,0,12-12V100A12,12,0,0,0,436,88Z" transform="translate(-64 -88)"/></svg>