<svg id="圖層_1" data-name="圖層 1" xmlns="http://www.w3.org/2000/svg" viewBox="0 0 60 60"><defs><style>.cls-1{fill:#2362ae;}.cls-2{fill:none;}</style></defs><title>icon</title><path class="cls-1" d="M30,0A21.31,21.31,0,0,0,8.66,21.32C8.66,33.1,30,60,30,60s5.35-6.75,10.7-14.94S51.34,27.18,51.34,21.32A21.38,21.38,0,0,0,30,0ZM21.46,21.32A8.52,8.52,0,1,1,30,29.84,8.53,8.53,0,0,1,21.46,21.32Z"/><path class="cls-2" d="M30,12.8a8.52,8.52,0,1,0,8.56,8.52A8.53,8.53,0,0,0,30,12.8Zm0,12.75a4.26,4.26,0,1,1,4.28-4.23A4.25,4.25,0,0,1,30,25.55Z"/></svg>