<?xml version="1.0" encoding="utf-8"?>
<!-- Generator: Adobe Illustrator 23.0.6, SVG Export Plug-In . SVG Version: 6.00 Build 0)  -->
<svg version="1.1" id="圖層_1" xmlns="http://www.w3.org/2000/svg" xmlns:xlink="http://www.w3.org/1999/xlink" x="0px" y="0px"
	 viewBox="0 0 60 60" style="enable-background:new 0 0 60 60;" xml:space="preserve">
<style type="text/css">
	.st0{fill:#FFFFFF;}
	.st1{fill:#2067BF;}
	.st2{fill:#3498DB;}
	.st3{font-family:'MicrosoftJhengHeiBold';}
	.st4{font-size:12px;}
	.st5{letter-spacing:4;}
	.st6{letter-spacing:1;}
</style>
<title>blue</title>
<g id="_3.產品主頁1-1-選擇頁面">
	<rect class="st0" width="60" height="60"/>
	<path class="st1" d="M50.8,0.8c1.7,0,3.1,1.4,3.1,3.1l0,0v52.3c0,1.7-1.4,3.1-3.1,3.1l0,0H9.2c-1.7,0-3.1-1.4-3.1-3.1l0,0V3.9
		c0-1.7,1.4-3.1,3.1-3.1l0,0H50.8 M50.8,0H9.2C7.1,0,5.4,1.7,5.4,3.9v52.3c0,2.1,1.7,3.9,3.8,3.9c0,0,0,0,0,0h41.5
		c2.1,0,3.9-1.7,3.9-3.9V3.9C54.6,1.7,52.9,0,50.8,0C50.8,0,50.8,0,50.8,0z"/>
	<path class="st1" d="M5.8,36.8v-33C5.8,1.7,7.5,0,9.6,0h40.8c2.1,0,3.8,1.7,3.8,3.8c0,0,0,0,0,0v33c0,0.1-0.1,0.2-0.2,0.2
		c0,0,0,0,0,0H6.1C5.9,37,5.8,36.9,5.8,36.8z"/>
	<rect x="9.4" y="41.7" class="st1" width="22.6" height="2"/>
	<rect x="9.4" y="46.8" class="st1" width="22.6" height="2"/>
	<rect x="43.9" y="40.9" class="st1" width="6.1" height="2"/>
	<rect x="43.9" y="46" class="st1" width="6.1" height="2"/>
	<rect x="43.9" y="51" class="st1" width="6.1" height="2"/>
	<rect x="9.4" y="52" class="st2" width="22.6" height="2"/>
	<text transform="matrix(1 0 0 1 18.39 31.1)" class="st0 st3 st4 st5">左3</text>
	<text transform="matrix(1 0 0 1 17.4 16.9)" class="st0 st3 st4 st6">中排</text>
</g>
</svg>
