<?xml version="1.0" encoding="utf-8"?>
<!-- Generator: Adobe Illustrator 24.2.3, SVG Export Plug-In . SVG Version: 6.00 Build 0)  -->
<svg version="1.1" id="圖層_1" xmlns="http://www.w3.org/2000/svg" xmlns:xlink="http://www.w3.org/1999/xlink" x="0px" y="0px"
	 viewBox="0 0 24 24" style="enable-background:new 0 0 24 24;" xml:space="preserve">
<style type="text/css">
	.st0{fill:#999999;}
	.st1{fill:#FFFFFF;}
	.st2{fill:#999999;stroke:#FFFFFF;stroke-miterlimit:10;}
</style>
<path class="st0" d="M-34.3-18.6v-5.5c0-1-0.5-1.9-1.3-2.4l-2.2-1.4c-0.5-0.3-1.1-0.4-1.6-0.1l-7.9,3c-0.7,0.3-1.2,1.1-1.2,1.9v18.7
	h14.1V-18.6z"/>
<polygon class="st1" points="-40.3,-22.9 -46.7,-20.5 -46.7,-22.5 -40.3,-24.8 "/>
<polygon class="st1" points="-40.3,-18.6 -46.7,-16.3 -46.7,-18.2 -40.3,-20.5 "/>
<polygon class="st1" points="-40.3,-14.4 -46.7,-12.1 -46.7,-14 -40.3,-16.3 "/>
<polygon class="st1" points="-40.3,-10.2 -46.7,-7.8 -46.7,-9.7 -40.3,-12.1 "/>
<polygon class="st1" points="-4,6.3 -10.4,8.7 -10.4,6.8 -4,4.4 "/>
<polygon class="st1" points="14.8,50.6 19.9,52.8 19.9,51.3 14.8,49.2 "/>
<path class="st0" d="M21.1,42.9l-6-2.6c-0.4-0.2-0.8-0.2-1.1,0l-2,1c-0.4,0.2-0.7,0.6-0.6,1.1v11.4h10.3V43.7
	C21.6,43.4,21.4,43,21.1,42.9z"/>
<path class="st0" d="M10.6,40.4l3.2-1.6c0.4-0.2,0.9-0.2,1.4,0l2,0.9v-5.6c0-1-0.5-1.9-1.3-2.4l-2.2-1.4c-0.5-0.3-1.1-0.4-1.6-0.1
	l-7.9,3c-0.7,0.3-1.2,1.1-1.2,1.9v18.7h6.7V41.7C9.8,41.1,10.1,40.7,10.6,40.4z"/>
<polygon class="st1" points="11.1,34.5 4.7,36.8 4.7,35.3 11.1,33 "/>
<polygon class="st1" points="11.1,37.8 4.7,40.1 4.7,38.6 11.1,36.3 "/>
<polygon class="st1" points="11.1,41 4.7,43.4 4.7,41.9 11.1,39.6 "/>
<polygon class="st1" points="15.8,43.9 20.9,46.1 20.9,44.6 15.8,42.4 "/>
<polygon class="st1" points="15.8,46.4 20.9,48.6 20.9,47.1 15.8,45 "/>
<polygon class="st1" points="15.8,48.9 20.9,51.1 20.9,49.6 15.8,47.5 "/>
<polygon class="st1" points="11.1,44.3 4.7,46.7 4.7,45.2 11.1,42.8 "/>
<polygon class="st1" points="11.1,47.6 4.7,49.9 4.7,48.5 11.1,46.1 "/>
<polygon class="st0" points="-25.9,36.9 -41.3,36.9 -41.3,18.4 -31.3,14.5 -25.9,18.1 "/>
<polygon class="st1" points="-36.9,21 -39.5,22 -39.5,19.7 -36.9,18.7 "/>
<polygon class="st1" points="-33.3,19.6 -35.9,20.6 -35.9,18.3 -33.3,17.3 "/>
<polygon class="st1" points="-36.9,24.7 -39.5,25.7 -39.5,23.3 -36.9,22.3 "/>
<polygon class="st1" points="-33.3,23.3 -35.9,24.3 -35.9,22 -33.3,20.9 "/>
<polygon class="st1" points="-36.9,28.4 -39.5,29.4 -39.5,27 -36.9,26 "/>
<polygon class="st1" points="-33.3,27 -35.9,28 -35.9,25.6 -33.3,24.6 "/>
<polygon class="st1" points="-36.9,32.1 -39.5,33.1 -39.5,30.7 -36.9,29.7 "/>
<polygon class="st1" points="-33.3,30.7 -35.9,31.7 -35.9,29.3 -33.3,28.3 "/>
<g>
	<rect x="-92.1" y="3.9" class="st0" width="6.2" height="10.7"/>
	<rect x="-91" y="1.5" class="st0" width="4.1" height="2.4"/>
	<polygon class="st0" points="-87.7,1.5 -90.2,1.5 -90.2,-1.5 -89,-2.5 -87.7,-1.5 	"/>
</g>
<polygon class="st0" points="-71.6,12.8 -83.6,11.1 -95.6,12.8 -95.6,14.5 -71.6,14.5 "/>
<polygon class="st0" points="-79,14.5 -84.9,14.5 -84.9,1.8 -79,3.6 "/>
<polygon class="st0" points="-95.6,14.5 -89.7,14.5 -89.7,5.1 -95.6,6.4 "/>
<g>
	<g>
		<path class="st0" d="M-33.2-4.9c-0.3-0.3-6.3-8-6.3-11.6c0-3.7,3-6.7,6.7-6.7s6.7,3,6.7,6.7c0,3.6-6.1,11.2-6.3,11.6l-0.4,0.5
			L-33.2-4.9z"/>
		<path class="st1" d="M-32.8-22.7c3.4,0,6.2,2.8,6.2,6.2c0,3.4-6.2,11.3-6.2,11.3S-39-13-39-16.5C-39-19.9-36.2-22.7-32.8-22.7
			 M-32.8-23.7c-4,0-7.2,3.2-7.2,7.2c0,3.7,5.8,11.1,6.4,11.9l0.8,1l0.8-1c0.7-0.8,6.4-8.2,6.4-11.9C-25.6-20.4-28.8-23.7-32.8-23.7
			L-32.8-23.7z"/>
	</g>
	<circle class="st1" cx="-32.8" cy="-16.5" r="2.7"/>
</g>
<rect x="-73.2" y="-21.4" class="st0" width="9.2" height="17.5"/>
<circle class="st1" cx="41.8" cy="8.5" r="3.5"/>
<path id="Path_53_1_" class="st2" d="M41.8,2.9c-3.1,0-5.6,2.5-5.6,5.5c0,0,0,0,0,0l0,0c0,3.3,3.5,7.9,5,9.7
	c0.3,0.3,0.8,0.4,1.1,0.1c0,0,0.1-0.1,0.1-0.1c1.4-1.7,5-6.3,5-9.7C47.4,5.4,44.9,2.9,41.8,2.9z M41.8,9.7c-0.7,0-1.3-0.6-1.3-1.3
	c0-0.7,0.6-1.3,1.3-1.3c0.7,0,1.3,0.6,1.3,1.3C43.1,9.2,42.5,9.7,41.8,9.7C41.8,9.7,41.8,9.7,41.8,9.7z"/>
<path class="st0" d="M11.5,2.1H3.1c-0.7,0-1.3,0.6-1.3,1.3V24h11.1V3.5C12.9,2.7,12.3,2.1,11.5,2.1z"/>
<path class="st0" d="M21,10.6h-6.7V24h7.9V11.8C22.2,11.2,21.7,10.6,21,10.6z"/>
<path class="st1" d="M6.3,7.9H3.9c-0.1,0-0.3-0.1-0.3-0.3V5.4c0-0.1,0.1-0.3,0.3-0.3h2.5c0.1,0,0.3,0.1,0.3,0.3v2.2
	C6.6,7.7,6.5,7.9,6.3,7.9z"/>
<path class="st1" d="M10.5,7.9H8.1c-0.1,0-0.3-0.1-0.3-0.3V5.4c0-0.1,0.1-0.3,0.3-0.3h2.5c0.1,0,0.3,0.1,0.3,0.3v2.2
	C10.8,7.7,10.7,7.9,10.5,7.9z"/>
<path class="st1" d="M6.3,12.5H3.9c-0.1,0-0.3-0.1-0.3-0.3V10c0-0.1,0.1-0.3,0.3-0.3h2.5c0.1,0,0.3,0.1,0.3,0.3v2.2
	C6.6,12.3,6.5,12.5,6.3,12.5z"/>
<path class="st1" d="M10.5,12.5H8.1c-0.1,0-0.3-0.1-0.3-0.3V10c0-0.1,0.1-0.3,0.3-0.3h2.5c0.1,0,0.3,0.1,0.3,0.3v2.2
	C10.8,12.3,10.7,12.5,10.5,12.5z"/>
<path class="st1" d="M20.3,21.7h-4.7v-1.6h4.7c0.1,0,0.3,0.1,0.3,0.3v1C20.6,21.5,20.4,21.7,20.3,21.7z"/>
<path class="st1" d="M20.3,19.1h-4.7v-1.6h4.7c0.1,0,0.3,0.1,0.3,0.3v1C20.6,19,20.4,19.1,20.3,19.1z"/>
<path class="st1" d="M20.3,16.6h-4.7V15h4.7c0.1,0,0.3,0.1,0.3,0.3v1C20.6,16.4,20.4,16.6,20.3,16.6z"/>
<path class="st1" d="M20.3,14h-4.7v-1.6h4.7c0.1,0,0.3,0.1,0.3,0.3v1C20.6,13.9,20.4,14,20.3,14z"/>
<path class="st1" d="M6.3,17.1H3.9c-0.1,0-0.3-0.1-0.3-0.3v-2.2c0-0.1,0.1-0.3,0.3-0.3h2.5c0.1,0,0.3,0.1,0.3,0.3v2.2
	C6.6,17,6.5,17.1,6.3,17.1z"/>
<path class="st1" d="M10.5,17.1H8.1c-0.1,0-0.3-0.1-0.3-0.3v-2.2c0-0.1,0.1-0.3,0.3-0.3h2.5c0.1,0,0.3,0.1,0.3,0.3v2.2
	C10.8,17,10.7,17.1,10.5,17.1z"/>
<path class="st1" d="M6.3,21.7H3.9c-0.1,0-0.3-0.1-0.3-0.3v-2.2c0-0.1,0.1-0.3,0.3-0.3h2.5c0.1,0,0.3,0.1,0.3,0.3v2.2
	C6.6,21.6,6.5,21.7,6.3,21.7z"/>
<path class="st1" d="M10.5,21.7H8.1c-0.1,0-0.3-0.1-0.3-0.3v-2.2c0-0.1,0.1-0.3,0.3-0.3h2.5c0.1,0,0.3,0.1,0.3,0.3v2.2
	C10.8,21.6,10.7,21.7,10.5,21.7z"/>
<polygon class="st0" points="24,22.6 12,22.6 0,22.6 0,24 24,24 "/>
</svg>
