<svg  xmlns="http://www.w3.org/2000/svg" version="1.1" viewBox="0 0 24 24">
  <!-- Generator: Adobe Illustrator 29.2.1, SVG Export Plug-In . SVG Version: 2.1.0 Build 116)  -->
  <defs>
    <style>
      .st0 {
        fill: none;
      }

      .st1 {
        fill: #999;
      }
    </style>
  </defs>
  <path class="st0" d="M24,0v24H0V0h24ZM12.6,23.3h0v.4h.2v-.4h0M12.9,23.1h-.2v.4h.2c0,.1,0-.5,0-.5h0M12.1,23.1h0v.6h.2v-.4h-.2v-.2Z"/>
  <path class="st1" d="M12,13c2.4,0,4.6.7,6.2,1.7.8.5,1.5,1.1,2,1.7.5.6.8,1.4.8,2.1s-.4,1.5-1,2-1.3.7-2.1,1c-1.6.4-3.7.6-5.9.6s-4.3-.1-5.9-.6c-.8-.2-1.5-.5-2.1-1s-1-1.1-1-2,.4-1.5.8-2.1c.5-.6,1.2-1.2,2-1.7,1.6-1,3.8-1.7,6.2-1.7M12,2c2.8,0,5,2.2,5,5s-2.2,5-5,5-5-2.2-5-5,2.2-5,5-5"/>
</svg>