<?xml version="1.0" encoding="UTF-8"?>
<svg id="_圖層_1" xmlns="http://www.w3.org/2000/svg" version="1.1" viewBox="0 0 24 24">
  <!-- Generator: Adobe Illustrator 29.2.1, SVG Export Plug-In . SVG Version: 2.1.0 Build 116)  -->
  <defs>
    <style>
      .st0 {
        fill: #999;
        fill-rule: evenodd;
      }

      .st1 {
        fill: none;
      }
    </style>
  </defs>
  <path class="st1" d="M24,0v24H0V0h24ZM12.6,23.3h0v.4h.2v-.4h0M12.9,23.1h-.2v.4h.2c0,.1,0-.5,0-.5h0M12.1,23.1h0v.6h.2v-.4h-.2v-.2Z"/>
  <path class="st0" d="M6,8c0-3.3,2.7-6,6-6s6,2.7,6,6h1c1.1,0,2,.9,2,2v10c0,1.1-.9,2-2,2H5c-1.1,0-2-.9-2-2v-10c0-1.1.9-2,2-2h1ZM12,4c2.2,0,4,1.8,4,4h-8c0-2.2,1.8-4,4-4M14,14c0,.7-.4,1.4-1,1.7v1.3c0,.6-.4,1-1,1s-1-.4-1-1v-1.3c-1-.6-1.3-1.8-.7-2.7.4-.6,1-1,1.7-1,1.1,0,2,.9,2,2"/>
</svg>